# xmcd
#
# Track frame offsets:
#	150
#	18175
#	33626
#	47888
#	62152
#	81633
#	101106
#	118698
#	130499
#	149231
#	165709
#
# Disc length: 2427 seconds
#
# Revision: 0
# Processed by: cddbd v1.4PL0 Copyright (c) Steve Scherf et al.
# Submitted via: EasyCDDAExtractor 4.6.0.1
#
DISCID=aa09790b
DTITLE=Jimi Hocking - Give Jimi some love!
DYEAR=2003
DGENRE=Blues
TTITLE0=Everybody's clown
TTITLE1=Skinny white boy
TTITLE2=No particular place to go
TTITLE3=Blues at my house
TTITLE4=Look at the damage (Free the children)
TTITLE5=Mr Nobody
TTITLE6=Collar up
TTITLE7=Credit card blues
TTITLE8=Good Boy
TTITLE9=Romance in Aisle 2
TTITLE10=Boxing gloves
EXTD=
EXTT0=
EXTT1=
EXTT2=
EXTT3=
EXTT4=
EXTT5=
EXTT6=
EXTT7=
EXTT8=
EXTT9=
EXTT10=
PLAYORDER=
